<?xml version="1.0" encoding="UTF-8" standalone="no"?>
<!-- Created with Inkscape (http://www.inkscape.org/) -->

<svg
   xmlns:dc="http://purl.org/dc/elements/1.1/"
   xmlns:cc="http://creativecommons.org/ns#"
   xmlns:rdf="http://www.w3.org/1999/02/22-rdf-syntax-ns#"
   xmlns:svg="http://www.w3.org/2000/svg"
   xmlns="http://www.w3.org/2000/svg"
   xmlns:sodipodi="http://sodipodi.sourceforge.net/DTD/sodipodi-0.dtd"
   xmlns:inkscape="http://www.inkscape.org/namespaces/inkscape"
   width="424.83401"
   height="145.064"
   viewBox="0 0 112.404 38.381517"
   version="1.1"
   id="svg116"
   inkscape:version="0.92.2 2405546, 2018-03-11"
   sodipodi:docname="logo-2018.svg">
  <defs
     id="defs110" />
  <sodipodi:namedview
     id="base"
     pagecolor="#ffffff"
     bordercolor="#666666"
     borderopacity="1.0"
     inkscape:pageopacity="0.0"
     inkscape:pageshadow="2"
     inkscape:zoom="0.35"
     inkscape:cx="5.7142857"
     inkscape:cy="560"
     inkscape:document-units="mm"
     inkscape:current-layer="layer1"
     showgrid="false"
     units="px"
     inkscape:window-width="1920"
     inkscape:window-height="1018"
     inkscape:window-x="1366"
     inkscape:window-y="34"
     inkscape:window-maximized="1" />
  <metadata
     id="metadata113">
    <rdf:RDF>
      <cc:Work
         rdf:about="">
        <dc:format>image/svg+xml</dc:format>
        <dc:type
           rdf:resource="http://purl.org/dc/dcmitype/StillImage" />
        <dc:title></dc:title>
      </cc:Work>
    </rdf:RDF>
  </metadata>
  <g
     inkscape:label="Layer 1"
     inkscape:groupmode="layer"
     id="layer1"
     transform="translate(0,-258.61847)">
    <path
       style="fill:#ffffff;stroke-width:0.26458332"
       d="m 9.1722128,296.80669 c -0.097,-0.097 -0.17639,-6.08585 -0.17639,-13.30854 0,-9.86112 0.0791,-13.21123 0.3175,-13.44965 0.47582,-0.47582 8.7738702,-0.44312 9.1716302,0.0361 0.19952,0.2404 0.31579,3.31162 0.36312,9.59114 l 0.0696,9.2375 5.82084,0.0679 5.82083,0.0679 5.35781,-5.53674 c 2.9468,-3.04521 5.35781,-5.65961 5.35781,-5.80977 0,-0.15016 -2.45583,-2.83862 -5.4574,-5.97436 l -5.4574,-5.70134 h -11.851 -11.8510102 l -3.32909,-3.50016 c -1.831,-1.9251 -3.329089986245,-3.59197 -3.329089986245,-3.70417 0,-0.1122 7.736649986245,-0.204 17.192560186245,-0.204 h 17.19256 l 9.19963,9.28761 c 5.612111,5.66578 9.199621,9.48392 9.199621,9.79102 0,0.30544 -3.6241,4.1967 -9.215351,9.89468 l -9.21536,9.39127 h -12.50253 c -6.87638,0 -12.5819002,-0.0794 -12.6789102,-0.17639 z m 61.6903312,-4.58427 -4.58443,-4.76066 -3.19164,-0.002 -3.19165,-0.002 -0.7771,-0.81033 c -0.77605,-0.80923 -0.77723,-0.81554 -0.86247,-4.6117 -0.059,-2.6291 0.0141,-3.99066 0.23727,-4.41519 0.17744,-0.3376 1.31718,-2.13799 2.53275,-4.00087 1.21557,-1.86288 2.21013,-3.54089 2.21013,-3.72891 0,-0.18802 -0.62498,-1.1344 -1.38885,-2.10305 l -1.38886,-1.76117 h -8.33825 -8.338261 l -3.50205,-3.50927 c -1.92613,-1.9301 -3.50206,-3.59698 -3.50206,-3.70417 0,-0.10719 6.28055,-0.189 13.956771,-0.1818 l 13.95677,0.0131 4.89479,5.42126 c 2.69214,2.98169 4.92292,5.56541 4.9573,5.74159 0.0344,0.17619 -1.36273,1.92769 -3.10471,3.89222 -1.74197,1.96453 -3.16908,3.76384 -3.17136,3.99847 -0.002,0.23463 4.04076,4.56723 8.98453,9.628 4.94377,5.06077 8.92533,9.30388 8.84793,9.42913 -0.0774,0.12524 -2.50581,0.22772 -5.39644,0.22772 h -5.25568 z m 16.23541,3.07222 -1.63755,-1.70534 v -11.76855 c 0,-10.4873 0.0456,-11.78604 0.41852,-11.92915 0.62159,-0.23853 7.86196,-0.18671 8.24906,0.059 0.26218,0.16645 0.31858,3.05578 0.26458,13.55585 l -0.0686,13.34431 -2.79422,0.0746 -2.79423,0.0746 z m -16.81347,-32.68795 c -1.69418,-1.88109 -3.08033,-3.54796 -3.08033,-3.70417 0,-0.20009 6.69133,-0.28402 22.64392,-0.28402 13.441276,0 22.608086,0.0976 22.555726,0.24005 -0.0485,0.13202 -1.5047,1.7989 -3.236,3.70416 l -3.1478,3.46412 H 89.692404 73.364814 Z"
       id="path183"
       inkscape:connector-curvature="0" />
  </g>
</svg>
